<svg id="Layer_1" data-name="Layer 1" xmlns="http://www.w3.org/2000/svg" xmlns:xlink="http://www.w3.org/1999/xlink" viewBox="0 0 176.8 176.8"><defs><style>.cls-1,.cls-7{fill:#231f20;}.cls-1{stroke:#231f20;}.cls-1,.cls-6,.cls-8{stroke-miterlimit:10;}.cls-2{fill:#f4f4f4;}.cls-3{fill:#ec008c;}.cls-4{fill:url(#linear-gradient);}.cls-5,.cls-6{fill:none;}.cls-6{stroke:#2c3c97;stroke-width:10px;}.cls-8{fill:#fff;stroke:#fff;}</style><linearGradient id="linear-gradient" x1="99.78" y1="31.17" x2="99.78" y2="31.17" gradientUnits="userSpaceOnUse"><stop offset="0.04" stop-color="#ea15ff"/><stop offset="0.24" stop-color="#cb33f4"/><stop offset="0.37" stop-color="#bc42ee"/><stop offset="0.46" stop-color="#bd39ec"/><stop offset="0.56" stop-color="#bd35eb"/><stop offset="1" stop-color="#6100e4"/></linearGradient></defs><circle class="cls-1" cx="88.4" cy="88.4" r="87.9"/><circle class="cls-2" cx="88.4" cy="62.16" r="39.01"/><path class="cls-3" d="M140.16,79.28,139,94a14.73,14.73,0,0,0,2.81-29.33l-.17,0Z" transform="translate(-11.6 -11.6)"/><path class="cls-3" d="M59.84,78.2,61,92.89a14.73,14.73,0,0,1-2.81-29.33l.17,0Z" transform="translate(-11.6 -11.6)"/><path class="cls-4" d="M99.78,31.17" transform="translate(-11.6 -11.6)"/><circle class="cls-5" cx="89.23" cy="61.05" r="22.96"/><path class="cls-6" d="M143.87,62.22c-10.28-48.65-80.56-43.78-87.91,0" transform="translate(-11.6 -11.6)"/><path class="cls-7" d="M89.77,85.14c3.22,0,3.22-5,0-5s-3.22,5,0,5Z" transform="translate(-11.6 -11.6)"/><path class="cls-7" d="M107.87,85.14c3.22,0,3.22-5,0-5s-3.22,5,0,5Z" transform="translate(-11.6 -11.6)"/><path class="cls-7" d="M95,91.17a8.08,8.08,0,0,0,10.28-3,.63.63,0,0,0-1.08-.63,6.81,6.81,0,0,1-8.57,2.56c-.72-.35-1.35.72-.63,1.08Z" transform="translate(-11.6 -11.6)"/><path class="cls-8" d="M142.49,173.28a10.12,10.12,0,0,0,6.42-10.83c-3.82-25.15-26.09-42.32-48.91-42.32S54.91,137.3,51.09,162.45a10.07,10.07,0,0,0,6.46,10.84C71.65,178.89,105.24,188.57,142.49,173.28Z" transform="translate(-11.6 -11.6)"/></svg>