<svg id="Layer_2" data-name="Layer 2" xmlns="http://www.w3.org/2000/svg" viewBox="0 0 176.8 176.8"><defs><style>.cls-1,.cls-6{fill:#231f20;}.cls-1,.cls-7{stroke:#231f20;stroke-miterlimit:10;}.cls-2{fill:#808285;}.cls-3{fill:#a7a9ac;}.cls-4{fill:#414042;}.cls-5{fill:#f1f2f2;}.cls-7{fill:none;stroke-width:2px;}</style></defs><path class="cls-1" d="M187.9,100A87.9,87.9,0,1,1,100,12.1,87.82,87.82,0,0,1,187.9,100Z" transform="translate(-11.6 -11.6)"/><path class="cls-2" d="M49.92,46.18h77a12,12,0,0,1,12,12v45.75a8.91,8.91,0,0,1-8.91,8.91H46.83a8.91,8.91,0,0,1-8.91-8.91V58.18A12,12,0,0,1,49.92,46.18Z"/><path class="cls-3" d="M147.35,127.94V169.1a88,88,0,0,1-94.7,0V127.94Z" transform="translate(-11.6 -11.6)"/><rect class="cls-4" x="41.05" y="61.36" width="94.7" height="4.96" rx="2.48"/><rect class="cls-4" x="41.05" y="67.75" width="94.7" height="4.96" rx="2.48"/><rect class="cls-4" x="41.05" y="74.54" width="94.7" height="4.96" rx="2.48"/><path class="cls-3" d="M47.55,84h81.7a6.5,6.5,0,0,1,6.5,6.5v33.93a0,0,0,0,1,0,0H41.05a0,0,0,0,1,0,0V90.51A6.5,6.5,0,0,1,47.55,84Z"/><rect class="cls-4" x="49.79" y="90.01" width="77.22" height="34.43" rx="14.5"/><rect class="cls-5" x="55.24" y="94.51" width="66.32" height="25.43" rx="12"/><path class="cls-6" d="M87.78,119.89c3.22,0,3.23-5,0-5s-3.22,5,0,5Z" transform="translate(-11.6 -11.6)"/><path class="cls-6" d="M110.35,119.37c3.22,0,3.22-5,0-5s-3.22,5,0,5Z" transform="translate(-11.6 -11.6)"/><path class="cls-6" d="M96,121.46a31.39,31.39,0,0,0,5.22.08,1.28,1.28,0,0,0,1.25-1.25,1.26,1.26,0,0,0-1.25-1.25A31.39,31.39,0,0,1,96,119a1.26,1.26,0,0,0-1.25,1.25A1.3,1.3,0,0,0,96,121.46Z" transform="translate(-11.6 -11.6)"/><rect class="cls-2" x="80.05" y="134.7" width="16.7" height="9.13" rx="2.35"/><rect class="cls-2" x="110.31" y="134.7" width="16.7" height="9.13" rx="2.35"/><rect class="cls-2" x="49.79" y="134.7" width="16.7" height="9.13" rx="2.35"/><rect class="cls-2" x="80.05" y="149.57" width="16.7" height="9.13" rx="2.35"/><rect class="cls-2" x="110.31" y="149.57" width="16.7" height="9.13" rx="2.35"/><rect class="cls-2" x="49.79" y="149.57" width="16.7" height="9.13" rx="2.35"/><path class="cls-3" d="M119.62,10.7h1.7a3.59,3.59,0,0,1,3.59,3.59V46.46a0,0,0,0,1,0,0H116a0,0,0,0,1,0,0V14.29A3.59,3.59,0,0,1,119.62,10.7Z"/><path class="cls-3" d="M52.41,34.85h5a3.29,3.29,0,0,1,3.29,3.29v8.32a0,0,0,0,1,0,0H49.12a0,0,0,0,1,0,0V38.14A3.29,3.29,0,0,1,52.41,34.85Z"/><path class="cls-3" d="M71.46,35.14h4.11a3,3,0,0,1,3,3v8.9a0,0,0,0,1,0,0H68.43a0,0,0,0,1,0,0v-8.9A3,3,0,0,1,71.46,35.14Z"/><line class="cls-7" x1="110.17" y1="17.34" x2="130.78" y2="17.34"/><line class="cls-7" x1="111.25" y1="21.66" x2="131.86" y2="21.66"/></svg>