<svg width="150" height="150" viewBox="0 0 150 150" fill="none" xmlns="http://www.w3.org/2000/svg">
<path d="M18.6497 109.791C18.6497 109.239 19.0974 108.791 19.6497 108.791H127.52C128.073 108.791 128.52 109.239 128.52 109.791V111.088C128.52 111.64 128.073 112.088 127.52 112.088H19.6497C19.0974 112.088 18.6497 111.64 18.6497 111.088V109.791Z" fill="#7D4343"/>
<ellipse cx="74.3696" cy="75" rx="71.4159" ry="75" fill="#231F20"/>
<path d="M15.5107 111.44C15.5107 110.887 15.9585 110.44 16.5107 110.44H130.66C131.212 110.44 131.66 110.887 131.66 111.44V112.736C131.66 113.289 131.212 113.736 130.66 113.736H16.5107C15.9585 113.736 15.5107 113.289 15.5107 112.736V111.44Z" fill="#75705E"/>
<path d="M73.5018 22.9439C73.886 22.2732 74.8533 22.2732 75.2374 22.9439L124.486 108.943C124.868 109.609 124.386 110.44 123.618 110.44H25.121C24.3528 110.44 23.8715 109.609 24.2533 108.943L73.5018 22.9439Z" fill="#B3A986"/>
<path d="M72.698 64.3402C73.0717 63.6228 74.0982 63.6228 74.4719 64.3402L97.2909 108.153C97.6376 108.819 97.1546 109.615 96.404 109.615H50.766C50.0153 109.615 49.5323 108.819 49.879 108.153L72.698 64.3402Z" fill="#231F20"/>
<path d="M70.446 14.8352C93.5821 63.9832 118.717 101.054 130.875 111.264" stroke="#D7D7D7"/>
<path d="M76.7244 18.1318C53.5883 67.2798 30.023 100.229 17.8649 110.44" stroke="#DFDFDF"/>
</svg>
